<svg height="511pt" viewBox="-115 0 511 511.998" width="511pt" xmlns="http://www.w3.org/2000/svg"><path d="m23.058594 500.726562-14.632813-36.570312c-.28125-.707031-.429687-1.464844-.429687-2.226562v-12.929688h265.070312v12.929688c0 .761718-.148437 1.519531-.429687 2.226562l-14.628907 36.570312c-.910156 2.28125-3.117187 3.773438-5.570312 3.773438h-223.808594c-2.453125 0-4.660156-1.492188-5.570312-3.773438zm0 0" fill="#d9e7ec"/><path d="m249.0625 449v12.929688c0 .761718-.144531 1.519531-.429688 2.226562l-14.625 36.570312c-.914062 2.28125-3.117187 3.773438-5.574218 3.773438h24.003906c2.453125 0 4.660156-1.492188 5.570312-3.773438l14.628907-36.570312c.285156-.707031.429687-1.464844.429687-2.226562v-12.929688zm0 0" fill="#aad4ec"/><path d="m24.566406 73.765625h231.933594v38.566406h-231.933594zm0 0" fill="#aad4ec"/><path d="m232.496094 73.765625h24.003906v38.566406h-24.003906zm0 0" fill="#87c5e8"/><path d="m272.433594 130.484375-15.9375-31.867187h-231.929688l-15.933594 31.867187c-.417968.832031-.632812 1.75-.632812 2.679687v16.335938h265.066406v-16.335938c0-.929687-.21875-1.847656-.632812-2.679687zm0 0" fill="#d9e7ec"/><path d="m272.433594 130.484375-15.933594-31.867187h-24.003906l15.933594 31.867187c.417968.832031.632812 1.75.632812 2.679687v16.335938h24.003906v-16.335938c0-.929687-.21875-1.847656-.632812-2.679687zm0 0" fill="#aad4ec"/><path d="m272.894531 131.75h-264.722656c-.113281.460938-.175781.9375-.175781 1.414062v328.765626c0 .386718.042968.773437.117187 1.15625h264.835938c.078125-.382813.117187-.769532.117187-1.15625v-328.765626c0-.476562-.058594-.953124-.171875-1.414062zm0 0" fill="#fdbf00"/><path d="m249.0625 131.75v331.335938h23.886719c.078125-.382813.117187-.769532.117187-1.15625v-328.765626c0-.476562-.0625-.953124-.171875-1.414062zm0 0" fill="#fda400"/><path d="m190.230469 313.984375v-74.550781c0-27.449219-22.25-49.699219-49.699219-49.699219s-49.699219 22.25-49.699219 49.699219v74.550781zm0 0" fill="#65db55"/><path d="m140.53125 189.734375c-3.425781 0-6.769531.347656-10 1.007813 22.65625 4.625 35.699219 24.667968 35.699219 48.691406v74.546875h24v-74.546875c0-27.449219-22.25-49.699219-49.699219-49.699219zm0 0" fill="#40c75b"/><path d="m90.832031 338.832031v18.851563c0 3.3125-2.6875 6-6 6h-35.375c-4.09375 0-6.988281-4.011719-5.691406-7.898438l5.015625-15.054687c.414062-1.230469.410156-2.5625 0-3.792969l-5.015625-15.058594c-1.296875-3.882812 1.59375-7.894531 5.691406-7.894531h24.808594zm0 0" fill="#aad4ec"/><path d="m206.800781 313.980469h24.804688c4.09375 0 6.988281 4.011719 5.691406 7.898437l-5.015625 15.054688c-.410156 1.230468-.410156 2.5625 0 3.792968l5.019531 15.058594c1.292969 3.886719-1.597656 7.898438-5.695312 7.898438h-35.375c-3.3125 0-6-2.6875-6-6v-18.851563zm0 0" fill="#aad4ec"/><path d="m200.800781 338.832031h-120.535156c-3.3125 0-6-2.6875-6-6v-37.699219c0-3.316406 2.6875-6 6-6h120.535156c3.3125 0 6 2.683594 6 6v37.699219c0 3.3125-2.6875 6-6 6zm0 0" fill="#d9e7ec"/><path d="m280.28125 465.109375c.023438-.089844.046875-.179687.070312-.269531.042969-.183594.078126-.371094.109376-.5625.015624-.097656.03125-.195313.046874-.296875.019532-.183594.03125-.375.039063-.566407.003906-.09375.015625-.191406.015625-.285156 0-.015625 0-.03125 0-.046875v-331.332031c0-.0625-.007812-.121094-.007812-.183594-.003907-.15625-.007813-.308594-.023438-.464844-.007812-.105468-.019531-.207031-.035156-.308593-.015625-.136719-.035156-.273438-.0625-.410157-.023438-.121093-.046875-.242187-.078125-.359374-.027344-.113282-.054688-.226563-.085938-.339844-.039062-.140625-.085937-.277344-.132812-.414063-.03125-.089843-.066407-.183593-.101563-.273437-.058594-.152344-.125-.300782-.195312-.445313-.023438-.050781-.042969-.105469-.066406-.15625l-15.777344-31.546875v-15.582031h.785156c4.144531 0 7.5-3.359375 7.5-7.5s-3.355469-7.5-7.5-7.5h-8.253906c-.011719 0-.019532 0-.03125 0-.007813 0-.015625 0-.027344 0h-42.171875v-42.160156c0-.015625 0-.027344 0-.039063v-16.566406c0-4.140625-3.355469-7.5-7.5-7.5h-49.699219c-4.140625 0-7.5 3.359375-7.5 7.5v16.527344.039062 42.199219h-125.003906c-.007812 0-.019531 0-.027344 0-.011718 0-.019531 0-.03125 0h-8.253906c-4.140625 0-7.5 3.359375-7.5 7.5s3.359375 7.5 7.5 7.5h.785156v15.582031l-15.777344 31.546875c-.023437.050781-.042968.105469-.066406.15625-.070312.144531-.132812.292969-.195312.445313-.035156.09375-.066406.183594-.101563.277344-.046875.132812-.089843.269531-.132812.410156-.03125.113281-.058594.226562-.085938.339844-.027343.117187-.054687.238281-.078125.359374-.023437.136719-.042968.273438-.0625.414063-.011718.101563-.027344.199219-.035156.304687-.011719.15625-.019531.3125-.023438.46875 0 .058594-.007812.117188-.007812.179688v43.550781c0 4.140625 3.355469 7.5 7.5 7.5 4.140625 0 7.5-3.359375 7.5-7.5v-36.050781h250.066406v316.335938h-250.066406v-250.585938c0-4.140625-3.359375-7.5-7.5-7.5-4.144531 0-7.5 3.359375-7.5 7.5v258.085938.042968c.003906.097656.011719.191406.015625.285156.007813.191407.019531.382813.042969.566407.011718.101562.027344.199219.042968.300781.03125.1875.070313.375.113282.558594.019531.089844.042968.179687.070312.269531.058594.210937.125.414063.199219.613281.019531.046875.03125.097656.050781.144532l16.566406 41.417968c1.140626 2.847656 3.898438 4.710938 6.964844 4.710938h231.933594c3.066406 0 5.824219-1.863282 6.964844-4.710938l16.566406-41.417968c.019531-.046876.027344-.097657.046875-.144532.074219-.199218.144531-.402344.203125-.613281zm-251.082031-358.992187h222.664062l9.066407 18.132812h-240.796876zm135.398437-91.117188h34.699219v9.046875.019531.019532c-.011719 4.988281-4.074219 9.046874-9.066406 9.046874h-16.566407c-5 0-9.0625-4.066406-9.0625-9.066406v-9.066406zm0 31.351562c2.800782 1.144532 5.859375 1.78125 9.066406 1.78125h16.566407c3.207031 0 6.265625-.636718 9.066406-1.777343v19.910156h-34.699219zm84.402344 34.914063v9.851563h-216.933594v-9.851563zm2.421875 415.734375h-221.777344l-10.570312-26.414062h242.914062zm0 0"/><path d="m140.53125 182.234375c-31.539062 0-57.199219 25.660156-57.199219 57.199219v42.199218h-9.066406c-4.140625 0-7.5 3.359376-7.5 7.5v17.347657h-25.632813c-2.414062 0-4.675781 1.160156-6.085937 3.117187-1.410156 1.957032-1.792969 4.46875-1.03125 6.757813l7.496094 22.480469-7.492188 22.476562c-.765625 2.285156-.378906 4.800781 1.03125 6.757812 1.40625 1.953126 3.671875 3.113282 6.082031 3.113282h49.699219c4.140625 0 7.5-3.359375 7.5-7.5v-17.351563h84.398438v17.351563c0 4.140625 3.359375 7.5 7.5 7.5h49.699219c2.414062 0 4.675781-1.160156 6.085937-3.113282 1.410156-1.957031 1.792969-4.472656 1.03125-6.757812l-7.496094-22.480469 7.492188-22.480469c.765625-2.285156.378906-4.800781-1.03125-6.753906-1.40625-1.957031-3.671875-3.117187-6.082031-3.117187h-25.632813v-17.347657c0-4.144531-3.355469-7.5-7.5-7.5h-9.066406v-42.199218c0-31.539063-25.660157-57.199219-57.199219-57.199219zm-42.199219 57.199219c0-23.269532 18.933594-42.199219 42.199219-42.199219 23.269531 0 42.199219 18.929687 42.199219 42.199219v42.199218h-84.398438zm-15 116.75h-31.792969l4.992188-14.980469c.511719-1.539063.511719-3.203125 0-4.742187l-4.996094-14.980469h15.230469v17.351562c0 4.144531 3.355469 7.5 7.5 7.5h9.0625v9.851563zm146.191407-34.703125-4.992188 14.980469c-.511719 1.539062-.511719 3.203124 0 4.742187l4.992188 14.980469h-31.792969v-9.851563h9.066406c4.144531 0 7.5-3.359375 7.5-7.5v-17.351562zm-30.222657 9.851562h-117.535156v-34.699219h117.53125v34.699219zm0 0"/><path d="m181.945312 306.480469h-82.832031c-4.140625 0-7.5 3.359375-7.5 7.5 0 4.144531 3.359375 7.5 7.5 7.5h82.832031c4.144532 0 7.5-3.355469 7.5-7.5 0-4.140625-3.355468-7.5-7.5-7.5zm0 0"/><path d="m140.53125 215.367188c-13.269531 0-24.066406 10.792968-24.066406 24.066406 0 4.140625 3.359375 7.5 7.5 7.5 4.144531 0 7.5-3.359375 7.5-7.5 0-5 4.066406-9.066406 9.066406-9.066406s9.066406 4.066406 9.066406 9.066406c0 4.140625 3.359375 7.5 7.5 7.5 4.144532 0 7.5-3.359375 7.5-7.5 0-13.269532-10.792968-24.066406-24.066406-24.066406zm0 0"/><path d="m157.097656 256.78125h-33.132812c-4.144532 0-7.5 3.359375-7.5 7.5 0 4.144531 3.355468 7.5 7.5 7.5h33.132812c4.140625 0 7.5-3.355469 7.5-7.5 0-4.140625-3.359375-7.5-7.5-7.5zm0 0"/></svg>