<?xml version="1.0" encoding="iso-8859-1"?>
<!-- Generator: Adobe Illustrator 19.0.0, SVG Export Plug-In . SVG Version: 6.00 Build 0)  -->
<svg version="1.1" id="Capa_1" xmlns="http://www.w3.org/2000/svg" xmlns:xlink="http://www.w3.org/1999/xlink" x="0px" y="0px"
	 viewBox="0 0 416 416" style="enable-background:new 0 0 416 416;" xml:space="preserve">
<g>
	<g>
		<path d="M208,197.728H102.08c-3.17,0-5.74,2.57-5.74,5.74s2.57,5.74,5.74,5.74H208c3.17,0,5.74-2.57,5.74-5.74
			S211.17,197.728,208,197.728z"/>
	</g>
</g>
<g>
	<g>
		<path d="M409.92,53.888l-0.16,0c-3.884-3.912-9.167-6.114-14.68-6.12H20.92c-5.493,0.006-10.759,2.193-14.64,6.08
			C2.31,57.706,0.048,62.992,0,68.528c0.006,5.493,2.193,10.759,6.08,14.64c3.884,3.912,9.167,6.114,14.68,6.12h4v181.2
			c0.022,12.141,9.859,21.978,22,22h155.52v26.84c-4.454,1.073-8.524,3.358-11.76,6.6c-9.676,9.663-9.687,25.34-0.024,35.016
			c0.008,0.008,0.016,0.016,0.024,0.024c9.663,9.676,25.34,9.687,35.016,0.024c0.008-0.008,0.016-0.016,0.024-0.024
			c9.676-9.663,9.687-25.34,0.024-35.016c-0.008-0.008-0.016-0.016-0.024-0.024c-3.247-3.249-7.332-5.533-11.8-6.6v-26.8h155.52
			c12.141-0.022,21.978-9.859,22-22v-181.2h4c5.493-0.006,10.759-2.193,14.64-6.08c3.907-3.901,6.095-9.199,6.08-14.72
			C415.994,63.035,413.807,57.769,409.92,53.888z M217.44,333.888c5.186,5.225,5.186,13.655,0,18.88
			c-5.225,5.186-13.655,5.186-18.88,0c-5.186-5.225-5.186-13.655,0-18.88C203.785,328.702,212.215,328.702,217.44,333.888z
			 M369.28,280.888H46.72c-5.801-0.022-10.498-4.719-10.52-10.52V89.328h343.56l0.04,181.04
			C379.778,276.169,375.081,280.866,369.28,280.888z M401.68,74.928c-1.74,1.741-4.099,2.719-6.56,2.72H20.92
			c-2.461-0.001-4.82-0.979-6.56-2.72c-1.741-1.74-2.719-4.099-2.72-6.56c0.001-2.461,0.979-4.82,2.72-6.56
			c1.74-1.741,4.099-2.719,6.56-2.72h374.16c2.461,0.001,4.82,0.979,6.56,2.72c1.741,1.74,2.719,4.099,2.72,6.56h0.04
			C404.399,70.829,403.421,73.188,401.68,74.928z"/>
	</g>
</g>
<g>
	<g>
		<path d="M208,124.568H102.08c-3.17,0-5.74,2.57-5.74,5.74c0,3.17,2.57,5.74,5.74,5.74H208c3.17,0,5.74-2.57,5.74-5.74
			C213.74,127.138,211.17,124.568,208,124.568z"/>
	</g>
</g>
<g>
	<g>
		<path d="M314.08,161.168h-212c-3.17,0-5.74,2.57-5.74,5.74s2.57,5.74,5.74,5.74h212c3.17,0,5.74-2.57,5.74-5.74
			S317.25,161.168,314.08,161.168z"/>
	</g>
</g>
<g>
	<g>
		<path d="M314.08,234.288h-212c-3.17,0-5.74,2.57-5.74,5.74s2.57,5.74,5.74,5.74h212c3.17,0,5.74-2.57,5.74-5.74
			S317.25,234.288,314.08,234.288z"/>
	</g>
</g>
<g>
</g>
<g>
</g>
<g>
</g>
<g>
</g>
<g>
</g>
<g>
</g>
<g>
</g>
<g>
</g>
<g>
</g>
<g>
</g>
<g>
</g>
<g>
</g>
<g>
</g>
<g>
</g>
<g>
</g>
</svg>
