<?xml version="1.0" encoding="iso-8859-1"?>
<!-- Generator: Adobe Illustrator 19.0.0, SVG Export Plug-In . SVG Version: 6.00 Build 0)  -->
<svg version="1.1" id="Capa_1" xmlns="http://www.w3.org/2000/svg" xmlns:xlink="http://www.w3.org/1999/xlink" x="0px" y="0px"
	 viewBox="0 0 513.332 513.332" style="enable-background:new 0 0 513.332 513.332;" xml:space="preserve">
<g>
	<g>
		<g>
			<path d="M480,388.538c-25.205-14.682-57.177-10.264-77.456,10.704l-61.04-35.264l61.024-35.2
				c7.918,8.193,17.902,14.097,28.896,17.088c34.37,9.554,69.977-10.563,79.532-44.933c9.554-34.37-10.563-69.977-44.933-79.532
				c-34.37-9.554-69.977,10.563-79.532,44.933c-3.159,11.363-3.146,23.375,0.037,34.732l-76.992,44.544L288,333.114v-183.76
				l-144-144l-144,144v358.624h288V394.97l21.536-12.464l76.992,44.448c-9.336,34.008,10.665,69.146,44.673,78.482
				s69.146-10.665,78.482-44.673C517.377,432.738,505.177,403.053,480,388.538z M417.152,275.695
				c2.197-8.189,7.555-15.171,14.896-19.413H432c4.857-2.828,10.379-4.313,16-4.304c2.82,0.004,5.628,0.375,8.352,1.104
				c17.069,4.58,27.194,22.131,22.613,39.2s-22.131,27.194-39.2,22.613S412.572,292.764,417.152,275.695z M256,314.634
				L81.872,214.106l-16,27.712L256,351.594v124.384H32V162.602l112-112l112,112V314.634z M475.696,459.978
				c-8.839,15.304-28.411,20.545-43.715,11.706c-15.304-8.839-20.545-28.411-11.706-43.715c4.242-7.345,11.228-12.706,19.421-14.903
				c2.709-0.721,5.501-1.087,8.304-1.088c17.673,0.027,31.978,14.376,31.951,32.049c-0.009,5.601-1.487,11.101-4.287,15.951H475.696
				z"/>
			<rect x="64" y="347.978" width="32" height="32"/>
			<rect x="128" y="347.978" width="32" height="32"/>
			<rect x="192" y="347.978" width="32" height="32"/>
			<rect x="128" y="123.978" width="32" height="32"/>
		</g>
	</g>
</g>
<g>
</g>
<g>
</g>
<g>
</g>
<g>
</g>
<g>
</g>
<g>
</g>
<g>
</g>
<g>
</g>
<g>
</g>
<g>
</g>
<g>
</g>
<g>
</g>
<g>
</g>
<g>
</g>
<g>
</g>
</svg>
