<?xml version="1.0" encoding="iso-8859-1"?>
<!-- Generator: Adobe Illustrator 19.0.0, SVG Export Plug-In . SVG Version: 6.00 Build 0)  -->
<svg version="1.1" id="Capa_1" xmlns="http://www.w3.org/2000/svg" xmlns:xlink="http://www.w3.org/1999/xlink" x="0px" y="0px"
	 viewBox="0 0 511.999 511.999" style="enable-background:new 0 0 511.999 511.999;" xml:space="preserve">
<g>
	<g>
		<path d="M504.499,108.482h-90.01c-1.989,0-3.897,0.79-5.305,2.197l-4.697,4.698l-4.697-4.698
			c-1.407-1.407-3.314-2.197-5.305-2.197H7.501c-4.143,0-7.501,3.358-7.501,7.501v200.025v0.001v40.002v0.003v40.003
			c0,4.142,3.358,7.501,7.501,7.501h386.983c1.989,0,3.897-0.79,5.304-2.197l4.698-4.698l4.698,4.698
			c1.407,1.407,3.314,2.197,5.305,2.197h90.011c4.143,0,7.501-3.358,7.501-7.501v-40.003v-0.003v-40.002v-0.001V115.982
			C512,111.84,508.642,108.482,504.499,108.482z M496.997,388.516h-79.403l-7.804-7.805c-1.407-1.406-3.314-2.197-5.305-2.197
			c-1.989,0-3.898,0.79-5.304,2.197l-7.805,7.805H15.002v-25.001h379.482c1.989,0,3.897-0.79,5.304-2.197l4.698-4.698l4.698,4.698
			c1.407,1.407,3.314,2.197,5.305,2.197h82.51V388.516z M496.997,348.513h-79.403l-7.804-7.805
			c-1.407-1.406-3.314-2.197-5.305-2.197c-1.989,0-3.898,0.79-5.304,2.197l-7.805,7.805H15.002V323.51h379.482
			c1.989,0,3.897-0.79,5.304-2.197l4.699-4.698l4.697,4.698c1.407,1.407,3.314,2.197,5.305,2.197h82.51V348.513z M496.998,308.508
			h-79.403l-7.804-7.805c-1.407-1.406-3.314-2.197-5.305-2.197s-3.898,0.79-5.304,2.197l-7.806,7.805H15.002V123.483h376.378
			l7.804,7.805c1.407,1.407,3.314,2.197,5.305,2.197c1.989,0,3.897-0.79,5.305-2.197l7.804-7.805h79.402V308.508z"/>
	</g>
</g>
<g>
	<g>
		<path d="M404.487,248.499c-4.143,0-7.501,3.358-7.501,7.501v20.002c0,4.142,3.357,7.501,7.501,7.501
			c4.142,0,7.501-3.358,7.501-7.501v-20.002C411.988,251.857,408.629,248.499,404.487,248.499z"/>
	</g>
</g>
<g>
	<g>
		<path d="M404.487,198.493c-4.143,0-7.501,3.358-7.501,7.501v20.002c0,4.143,3.357,7.501,7.501,7.501
			c4.142,0,7.501-3.358,7.501-7.501v-20.002C411.988,201.852,408.629,198.493,404.487,198.493z"/>
	</g>
</g>
<g>
	<g>
		<path d="M404.487,148.488c-4.143,0-7.501,3.358-7.501,7.501v20.002c0,4.143,3.357,7.501,7.501,7.501
			c4.142,0,7.501-3.358,7.501-7.501v-20.002C411.988,151.847,408.629,148.488,404.487,148.488z"/>
	</g>
</g>
<g>
	<g>
		<path d="M454.493,148.488c-4.143,0-7.501,3.358-7.501,7.501v120.014c0,4.143,3.357,7.501,7.501,7.501
			c4.142,0,7.501-3.358,7.501-7.501V155.989C461.994,151.847,458.635,148.488,454.493,148.488z"/>
	</g>
</g>
<g>
	<g>
		<path d="M77.512,158.491c-15.165,0-27.503,12.339-27.503,27.503c0,15.165,12.338,27.503,27.503,27.503
			s27.503-12.338,27.503-27.503C105.016,170.829,92.678,158.491,77.512,158.491z M77.512,198.495
			c-6.894,0-12.502-5.608-12.502-12.502c0-6.894,5.608-12.502,12.502-12.502c6.894,0,12.502,5.608,12.502,12.502
			C90.014,192.888,84.406,198.495,77.512,198.495z"/>
	</g>
</g>
<g>
	<g>
		<path d="M147.518,228.496c-15.166,0-27.503,12.338-27.503,27.503c0,15.166,12.338,27.503,27.503,27.503
			s27.503-12.338,27.503-27.503C175.021,240.834,162.684,228.496,147.518,228.496z M147.518,268.501
			c-6.894,0-12.502-5.608-12.502-12.502c0-6.894,5.608-12.502,12.502-12.502c6.894,0,12.502,5.608,12.502,12.502
			C160.019,262.892,154.412,268.501,147.518,268.501z"/>
	</g>
</g>
<g>
	<g>
		<path d="M172.824,160.686c-2.929-2.929-7.678-2.929-10.607,0L52.205,270.697c-2.929,2.929-2.929,7.679,0,10.607
			c1.464,1.464,3.384,2.197,5.304,2.197s3.839-0.732,5.304-2.197l110.011-110.011C175.753,168.364,175.753,163.614,172.824,160.686z
			"/>
	</g>
</g>
<g>
	<g>
		<path d="M351.045,178.493H231.031c-4.143,0-7.501,3.358-7.501,7.501c0,4.143,3.358,7.501,7.501,7.501h120.014
			c4.142,0,7.501-3.358,7.501-7.501C358.545,181.852,355.187,178.493,351.045,178.493z"/>
	</g>
</g>
<g>
	<g>
		<path d="M351.045,208.497H231.031c-4.143,0-7.501,3.358-7.501,7.501s3.358,7.501,7.501,7.501h120.014
			c4.142,0,7.501-3.358,7.501-7.501S355.187,208.497,351.045,208.497z"/>
	</g>
</g>
<g>
	<g>
		<path d="M291.031,238.5h-60c-4.143,0-7.501,3.358-7.501,7.501c0,4.143,3.358,7.501,7.501,7.501h60
			c4.143,0,7.501-3.358,7.501-7.501C298.532,241.859,295.174,238.5,291.031,238.5z"/>
	</g>
</g>
<g>
</g>
<g>
</g>
<g>
</g>
<g>
</g>
<g>
</g>
<g>
</g>
<g>
</g>
<g>
</g>
<g>
</g>
<g>
</g>
<g>
</g>
<g>
</g>
<g>
</g>
<g>
</g>
<g>
</g>
</svg>
