<?xml version="1.0" encoding="iso-8859-1"?>
<!-- Generator: Adobe Illustrator 18.0.0, SVG Export Plug-In . SVG Version: 6.00 Build 0)  -->
<!DOCTYPE svg PUBLIC "-//W3C//DTD SVG 1.1//EN" "http://www.w3.org/Graphics/SVG/1.1/DTD/svg11.dtd">
<svg version="1.1" id="Capa_1" xmlns="http://www.w3.org/2000/svg" xmlns:xlink="http://www.w3.org/1999/xlink" x="0px" y="0px"
	 viewBox="0 0 297 297" style="enable-background:new 0 0 297 297;" xml:space="preserve">
<g>
	<path d="M288.616,168.264c3.735-5.183,8.384-11.632,8.384-19.764s-4.648-14.581-8.384-19.764c-1.793-2.489-4.025-5.585-4.352-7.238
		c-0.363-1.841,0.502-5.522,1.264-8.769c1.441-6.127,3.236-13.756,0.199-21.075c-3.083-7.434-9.813-11.586-15.218-14.921
		c-2.647-1.635-5.945-3.668-6.925-5.133c-1.009-1.505-1.613-5.199-2.147-8.458c-1.019-6.24-2.288-14.005-7.932-19.646
		c-5.642-5.643-13.406-6.914-19.647-7.934c-3.259-0.533-6.954-1.138-8.459-2.146c-1.464-0.979-3.497-4.276-5.132-6.924
		c-3.336-5.406-7.487-12.139-14.922-15.219c-2.663-1.105-5.641-1.665-8.854-1.665c-4.296,0-8.508,0.991-12.223,1.864
		c-2.809,0.66-5.718,1.344-7.746,1.344c-0.506,0-0.834-0.044-1.022-0.08c-1.652-0.327-4.748-2.56-7.237-4.353
		C163.081,4.648,156.632,0,148.5,0c-8.132,0-14.581,4.648-19.764,8.384c-2.489,1.793-5.585,4.025-7.238,4.353
		c-0.271,0.053-0.614,0.08-1.021,0.08c-2.028,0-4.937-0.684-7.747-1.344c-3.715-0.873-7.926-1.864-12.222-1.864
		c-3.213,0-6.19,0.56-8.854,1.665c-7.434,3.08-11.586,9.812-14.921,15.218c-1.635,2.648-3.668,5.945-5.133,6.925
		c-1.505,1.009-5.199,1.613-8.458,2.146c-6.24,1.019-14.005,2.287-19.646,7.932c-5.645,5.642-6.914,13.406-7.934,19.648
		c-0.533,3.259-1.138,6.954-2.146,8.459c-0.979,1.464-4.276,3.497-6.924,5.132c-5.406,3.336-12.139,7.487-15.219,14.922
		c-3.037,7.319-1.241,14.948,0.199,21.075c0.762,3.246,1.627,6.928,1.264,8.77c-0.327,1.652-2.56,4.748-4.353,7.237
		C4.648,133.919,0,140.368,0,148.5s4.648,14.581,8.384,19.764c1.793,2.489,4.025,5.585,4.353,7.238
		c0.363,1.841-0.502,5.522-1.264,8.768c-1.441,6.127-3.236,13.756-0.199,21.075c3.08,7.434,9.812,11.586,15.218,14.921
		c2.648,1.635,5.945,3.668,6.925,5.133c1.009,1.505,1.613,5.199,2.146,8.458c1.019,6.24,2.288,14.005,7.932,19.646
		c5.642,5.645,13.406,6.914,19.648,7.934c3.259,0.533,6.954,1.138,8.459,2.147c1.464,0.979,3.497,4.275,5.132,6.924
		c3.336,5.406,7.487,12.137,14.922,15.219c2.663,1.105,5.641,1.665,8.854,1.665c4.296,0,8.508-0.991,12.223-1.864
		c2.81-0.66,5.718-1.344,7.746-1.344c0.506,0,0.834,0.044,1.022,0.08c1.652,0.327,4.748,2.56,7.237,4.353
		c5.183,3.735,11.632,8.384,19.764,8.384c8.132,0,14.581-4.648,19.764-8.384c2.489-1.793,5.585-4.025,7.238-4.353
		c0.271-0.053,0.614-0.08,1.021-0.08c2.028,0,4.937,0.684,7.747,1.344c3.715,0.873,7.926,1.864,12.222,1.864
		c3.213,0,6.19-0.56,8.854-1.665c7.434-3.082,11.585-9.812,14.921-15.218c1.635-2.647,3.668-5.944,5.133-6.924
		c1.505-1.01,5.2-1.614,8.459-2.147c6.24-1.019,14.005-2.287,19.645-7.932c5.645-5.642,6.914-13.406,7.934-19.648
		c0.533-3.259,1.138-6.954,2.147-8.459c0.979-1.464,4.276-3.497,6.924-5.132c5.406-3.336,12.136-7.487,15.219-14.922
		c3.037-7.319,1.241-14.948-0.199-21.075c-0.762-3.246-1.627-6.928-1.264-8.769C284.591,173.849,286.823,170.753,288.616,168.264z
		 M272.227,156.45c-3.095,4.293-6.601,9.159-7.781,15.133c-1.213,6.131,0.182,12.07,1.417,17.312
		c0.65,2.773,1.742,7.412,1.202,8.712c-0.582,1.404-4.546,3.852-7.167,5.468c-4.539,2.8-9.679,5.974-13.103,11.085
		c-3.45,5.153-4.43,11.15-5.295,16.439c-0.465,2.835-1.241,7.579-2.281,8.621c-1.042,1.039-5.785,1.816-8.62,2.281
		c-5.29,0.865-11.287,1.845-16.439,5.294c-5.111,3.424-8.285,8.564-11.087,13.104c-1.615,2.621-4.062,6.584-5.466,7.166
		c-0.03,0.013-0.321,0.122-1.114,0.122c-1.953,0-4.822-0.673-7.598-1.324c-3.751-0.882-8-1.884-12.371-1.884
		c-1.719,0-3.382,0.158-4.94,0.467c-5.974,1.181-10.84,4.686-15.133,7.781c-2.523,1.819-6.339,4.568-7.95,4.568
		s-5.427-2.749-7.95-4.568c-4.293-3.095-9.159-6.601-15.133-7.781c-1.559-0.309-3.222-0.467-4.94-0.467
		c-4.371,0-8.62,1.002-12.371,1.884c-2.775,0.651-5.645,1.324-7.598,1.324c-0.793,0-1.084-0.109-1.114-0.122
		c-1.404-0.582-3.852-4.546-5.468-7.167c-2.8-4.539-5.974-9.679-11.085-13.103c-5.153-3.45-11.15-4.43-16.439-5.295
		c-2.835-0.465-7.579-1.241-8.621-2.281c-1.039-1.042-1.816-5.785-2.281-8.621c-0.864-5.289-1.844-11.285-5.294-16.439
		c-3.424-5.112-8.565-8.285-13.104-11.086c-2.621-1.616-6.584-4.063-7.166-5.467c-0.54-1.3,0.552-5.938,1.202-8.712
		c1.235-5.241,2.63-11.181,1.417-17.312c-1.181-5.974-4.686-10.84-7.781-15.133c-1.819-2.523-4.568-6.339-4.568-7.95
		s2.749-5.427,4.568-7.95c3.095-4.293,6.601-9.159,7.781-15.133c1.213-6.131-0.182-12.07-1.417-17.312
		c-0.65-2.773-1.742-7.412-1.202-8.712c0.582-1.404,4.546-3.852,7.167-5.468c4.539-2.8,9.679-5.974,13.103-11.085
		c3.45-5.153,4.43-11.15,5.295-16.439c0.465-2.835,1.241-7.579,2.281-8.621c1.042-1.039,5.785-1.816,8.621-2.281
		c5.289-0.864,11.285-1.844,16.438-5.294c5.112-3.424,8.285-8.565,11.086-13.104c1.616-2.621,4.063-6.584,5.467-7.166
		c0.03-0.013,0.321-0.122,1.114-0.122c1.953,0,4.822,0.673,7.598,1.324c3.75,0.882,8,1.884,12.371,1.884
		c1.719,0,3.382-0.158,4.94-0.467c5.974-1.181,10.84-4.686,15.133-7.781c2.523-1.819,6.339-4.568,7.95-4.568s5.427,2.749,7.95,4.568
		c4.293,3.095,9.159,6.601,15.133,7.781c1.559,0.309,3.222,0.467,4.94,0.467c4.371,0,8.62-1.002,12.371-1.884
		c2.775-0.651,5.645-1.324,7.598-1.324c0.793,0,1.084,0.109,1.114,0.122c1.404,0.582,3.852,4.546,5.468,7.167
		c2.8,4.539,5.974,9.679,11.085,13.103c5.153,3.45,11.15,4.43,16.439,5.295c2.835,0.465,7.579,1.241,8.621,2.281
		c1.039,1.042,1.816,5.785,2.281,8.621c0.864,5.289,1.844,11.285,5.294,16.438c3.424,5.112,8.564,8.285,13.104,11.086
		c2.621,1.616,6.584,4.063,7.166,5.467c0.54,1.3-0.552,5.938-1.202,8.712c-1.235,5.241-2.63,11.181-1.417,17.312
		c1.181,5.974,4.687,10.84,7.781,15.133c1.819,2.523,4.568,6.339,4.568,7.95S274.046,153.927,272.227,156.45z"/>
	<path d="M148.5,46.721c-56.122,0-101.778,45.656-101.778,101.779S92.378,250.279,148.5,250.279
		c56.12,0,101.778-45.656,101.778-101.779S204.62,46.721,148.5,46.721z M148.5,230.074c-44.979,0-81.573-36.594-81.573-81.574
		s36.594-81.574,81.573-81.574s81.573,36.594,81.573,81.574S193.479,230.074,148.5,230.074z"/>
	<path d="M197.313,99.687c-3.944-3.945-10.339-3.945-14.286,0l-83.341,83.341c-3.946,3.946-3.946,10.343,0,14.286
		c1.971,1.973,4.556,2.958,7.142,2.958c2.586,0,5.171-0.985,7.145-2.958l83.341-83.341C201.26,110.026,201.26,103.63,197.313,99.687
		z"/>
	<path d="M141.934,115.163c0-14.762-12.008-26.77-26.77-26.77c-14.762,0-26.77,12.008-26.77,26.77s12.008,26.77,26.77,26.77
		C129.926,141.933,141.934,129.925,141.934,115.163z M108.597,115.163c0-3.619,2.948-6.567,6.567-6.567
		c3.622,0,6.567,2.948,6.567,6.567c0,3.622-2.945,6.567-6.567,6.567C111.545,121.73,108.597,118.785,108.597,115.163z"/>
	<path d="M181.837,155.067c-14.762,0-26.77,12.008-26.77,26.77s12.008,26.77,26.77,26.77c14.762,0,26.77-12.008,26.77-26.77
		S196.599,155.067,181.837,155.067z M181.837,188.404c-3.622,0-6.567-2.948-6.567-6.567c0-3.622,2.945-6.567,6.567-6.567
		c3.619,0,6.567,2.945,6.567,6.567C188.404,185.456,185.456,188.404,181.837,188.404z"/>
</g>
<g>
</g>
<g>
</g>
<g>
</g>
<g>
</g>
<g>
</g>
<g>
</g>
<g>
</g>
<g>
</g>
<g>
</g>
<g>
</g>
<g>
</g>
<g>
</g>
<g>
</g>
<g>
</g>
<g>
</g>
</svg>
